<?xml version="1.0" encoding="UTF-8" standalone="no"?><svg width="792" height="443" viewBox="0 0 792 443" xmlns="http://www.w3.org/2000/svg" xmlns:xlink="http://www.w3.org/1999/xlink"><svg version="1" width="610" height="209.42" viewBox="-5 -5 610 209.42" id="areto"><defs><linearGradient x1="112.499" y1="6.137" x2="112.499" y2="129.347" id="aa" gradientUnits="userSpaceOnUse" gradientTransform="translate(287 -83)"><stop offset="0" stop-color="#fff" stop-opacity="0"/><stop offset="1" stop-color="#fff" stop-opacity=".275"/><midPointStop offset=".5" stop-color="#fff"/></linearGradient><linearGradient id="ab"><stop offset="0" stop-opacity="0"/><stop offset="1" stop-opacity=".371"/></linearGradient></defs><g transform="matrix(.87464 0 0 .87464 -20.047 -106.393)"><g transform="matrix(.63786 0 0 .63786 36.486 2.171)" fill="#4d4d4d" fill-rule="evenodd"><path d="M339.969 309.094c-14.472-.024-26.481 2.943-31.125 4.562l-4.781 25.813c-.012.095 23.795-6.349 34.28-5.969 17.362.624 18.96 6.635 18.657 14.75.296.475-4.48-7.332-19.5-7.594-18.95-.327-45.693 6.71-45.656 35.313-.511 32.174 24.033 41.639 40.75 41.812 15.028-.273 22.077-5.691 25.937-8.594 5.071-5.302 10.873-10.634 16.406-17.03-5.235 9.512-9.774 16.09-14.5 21.124v4.25l22.844-3.844.156-62.093c-.23-8.789 5.042-42.419-43.468-42.5zm-3.281 54.062c9.468.13 20.327 4.797 20.343 16.031.05 10.219-12.8 15.712-21.156 15.625-8.36-.086-19.45-6.57-19.5-16.53.16-8.905 10.46-15.355 20.313-15.126zM398.501 314.831l-.155 102.827 26.612-5.127.045-58.301c.006-8.681 12.406-18.825 27.963-18.663 3.302-5.974 9.508-21.242 11.02-24.715-34.756-.084-35.198 9.99-41.243 14.945-.063-9.453-.022-15.128-.022-15.128l-24.22 4.162zM548.269 328.33c-.257-.12-13.88-15.934-41.267-16.058-25.652-.427-54.425 9.519-54.886 52.532.225 37.819 27.64 52.599 55.032 52.887 29.312.304 40.976-18.33 41.676-18.791-3.498-3.033-16.598-16.014-16.598-16.014s-8.183 11.651-24.058 11.8c-15.88.15-29.683-12.274-29.878-29.61-.204-17.335 12.688-26.728 29.997-27.486 14.985-.003 23.63 9.673 23.63 9.673l16.352-18.932zM581.813 278.844l-25.125 5.906.187 133.938 24.75-4.47.281-63.03c.053-6.61 9.562-16.76 25.438-16.438 15.18.158 18.572 10.118 18.531 11.375l.438 72.969 24.406-4.313.093-77.375c.161-7.445-16.308-23.17-42.78-23.281-12.582.02-19.549 2.868-23.095 4.969-6.066 4.685-13 9.175-19.812 14.906 6.298-8.091 11.585-13.685 16.75-17.844l-.063-37.312z"/></g><g transform="matrix(.94434 0 .01336 .94434 78.346 -412.489)" fill="#1793d1" fill-rule="evenodd"><path d="M400.676 629.796l7.681-1.916-.928 91.208-7.796 1.325 1.043-90.617zM421.103 657.018l6.75-2.987-.868 65.4-6.498 1.338.616-63.751zm-1.26-23.584l5.47-4.415 4.423 5-5.475 4.532-4.419-5.117zM440.443 655.826l7.677-1.562-.157 13.672c-.007.587 4.42-15.273 24.685-14.92 19.68.109 22.684 15.346 22.53 18.762l-.438 48.078-6.73 1.456.632-47.489c.098-1.386-2.881-13.114-16.789-13.157-13.905-.04-23.683 10.1-23.758 16.58l-.481 41.834-7.804 2.031.633-65.285zM561.533 720.202l-7.678 1.562.158-13.672c.007-.588-4.422 15.274-24.685 14.92-19.68-.109-22.684-15.345-22.53-18.762l.438-48.078 8.157-1.642-.546 47.49c-.015 1.296 1.368 13.3 15.276 13.342 13.905.04 23.766-8.373 24.014-21.044l.431-37.47 7.598-1.931-.633 65.285zM577.455 655.287l-5.428 4.2 20.2 26.933-22.392 31.116 5.635 4.226 21.044-28.896 20.878 29.581 5.327-4.2-22.375-31.63 18.57-25.577-5.533-4.734-16.92 23.668-19.006-24.687z"/></g><path d="M143.9 140.651c-8.458 20.735-13.559 34.297-22.975 54.416 5.773 6.12 12.86 13.246 24.368 21.294-12.373-5.09-20.812-10.202-27.119-15.506-12.05 25.145-30.93 60.963-69.243 129.804 30.113-17.385 53.456-28.103 75.21-32.192a55.13 55.13 0 0 1-1.43-12.898l.036-.965c.478-19.292 10.514-34.128 22.403-33.121 11.888 1.007 21.129 17.473 20.651 36.765-.09 3.63-.5 7.123-1.215 10.362 21.519 4.21 44.612 14.9 74.317 32.049-5.857-10.784-11.085-20.505-16.078-29.763-7.864-6.095-16.067-14.028-32.8-22.616 11.501 2.988 19.736 6.436 26.154 10.29-50.762-94.51-54.872-107.069-72.28-147.919z" fill="#1793d1" fill-rule="evenodd"/><g font-size="8.441" font-weight="400" fill="#1793d1" font-family="DejaVu Sans Mono"><path d="M685.467 263.836v-5.33h-1.99v-.712h4.789v.713h-2v5.33h-.8M689.098 263.836v-6.042h1.204l1.43 4.278c.132.399.228.697.289.895.068-.22.175-.543.321-.97l1.447-4.203h1.076v6.042h-.771v-5.057l-1.756 5.057h-.721l-1.748-5.144v5.144h-.77"/></g><g font-size="8.251" font-weight="400" fill="#1793d1" font-family="DejaVu Sans Mono"><path d="M239.84 313.7v-5.21h-1.945v-.697h4.681v.697h-1.954v5.21h-.781M243.39 313.7v-5.907h1.177l1.398 4.182c.128.39.222.681.282.875.067-.215.171-.53.314-.947l1.414-4.11h1.052v5.907h-.754v-4.944l-1.716 4.944h-.705l-1.709-5.028v5.028h-.753"/></g></g></svg><svg id="arrow-left" data-name="Слой 1" viewBox="-5 -5 39.99 64.97" width="39.99" height="64.97" x="610" y="210"><defs><style>.bcls-1{fill:#fff}</style></defs><title>arrow-left</title><path class="bcls-1" d="M28.52 55L0 27.48 28.52 0 30 1.51 3 27.48l27 25.98z"/></svg><svg id="arrow-right" data-name="Слой 1" viewBox="-5 -5 39.99 64.97" width="39.99" height="64.97" x="650" y="275"><defs><style>.ccls-1{fill:#fff}</style></defs><title>arrow-right</title><path class="ccls-1" d="M1.48 55L30 27.48 1.48 0 0 1.51l26.95 26L0 53.46z"/></svg><svg id="ico_chim" viewBox="-5 -5 21.68 25.95" width="21.68" height="25.95" x="690" y="340"><defs><style>.dico-chim__path{fill:#fff}</style></defs><path class="dico-chim__path" d="M11.58 13.95L8.51 5.68V3.25a1.47 1.47 0 0 0 1-1.39v-.39A1.47 1.47 0 0 0 8 0H3.65a1.47 1.47 0 0 0-1.48 1.47v.4a1.47 1.47 0 0 0 1 1.38v2.43L.11 13.93a1.45 1.45 0 0 0 .14 1.37 1.48 1.48 0 0 0 1.23.7h8.72a1.48 1.48 0 0 0 1.23-.65 1.44 1.44 0 0 0 .15-1.4zm-8.11-1.88a.5.5 0 1 1 .5.5.5.5 0 0 1-.5-.5zm3.25.44a.86.86 0 1 1-.87.86.87.87 0 0 1 .87-.86zM6 10.62a.63.63 0 1 1 .63.62.63.63 0 0 1-.63-.62zM4.15 5.85V2.36h-.5a.5.5 0 0 1-.5-.5v-.39a.5.5 0 0 1 .5-.47H8a.5.5 0 0 1 .5.5v.4a.5.5 0 0 1-.51.5h-.46v3.45l.86 2.32c-.64.66-5.31.73-5.31.73H3z"/><path class="dico-chim__path" d="M5.5 7.72A.68.68 0 1 0 4.82 7a.68.68 0 0 0 .68.72z"/></svg><svg id="ico_coffe" viewBox="-5 -5 26.01 25.63" width="26.01" height="25.63" x="712" y="366"><defs><style>.eico-coffe__path{fill:#fff}</style></defs><path class="eico-coffe__path" d="M13.31 13.61c-.6 0-1.29-.08-2-.1a6.84 6.84 0 0 0 1.67-2.25 1.58 1.58 0 0 0 2 .24 1.61 1.61 0 0 0-1.22-2.95v-.88a.56.56 0 0 0-.56-.56H2.83a.56.56 0 0 0-.56.56 7.72 7.72 0 0 0 2.46 5.83c-.74 0-1.43.06-2 .1-2.12.15-2.73.29-2.73.94s.61.79 2.7.93c1.42.1 3.3.16 5.3.16s3.88-.06 5.3-.16c2.09-.15 2.7-.29 2.7-.93s-.6-.79-2.69-.93zm.27-4.29a.93.93 0 0 1 1.29.32.94.94 0 0 1 .11.71.93.93 0 0 1-.42.58.93.93 0 0 1-1.29-.31 8.35 8.35 0 0 0 .31-1.31zM3.41 8.24h9.19c-.22 3-2.2 5.42-4.59 5.42s-4.38-2.39-4.6-5.42zM7 6a.45.45 0 0 0 .42-.61 3.19 3.19 0 0 1 .12-2.3 2.93 2.93 0 0 0 .58-2.4A1.07 1.07 0 0 0 7.46 0a.45.45 0 0 0-.56.3.45.45 0 0 0 .28.56.22.22 0 0 1 .1.13 2.06 2.06 0 0 1-.48 1.58l-.15.23c-.7 1.09-.91 1.92-.65 2.5A1.21 1.21 0 0 0 7 6zM9.35 6a.42.42 0 0 0 .4-.57 1.81 1.81 0 0 1 .06-1.28 1.9 1.9 0 0 0 .36-1.58.81.81 0 0 0-.5-.5.43.43 0 0 0-.52.29.42.42 0 0 0 0 .32.42.42 0 0 0 .25.2 1.16 1.16 0 0 1-.28.83L9 3.9a1.74 1.74 0 0 0-.38 1.66.88.88 0 0 0 .73.44z"/></svg><svg id="ico_plane" viewBox="-5 -5 26 25" width="26" height="25" x="739" y="392"><defs><style>.fico-plane__path{fill:#fff}</style></defs><path class="fico-plane__path" d="M15.94 0a.16.16 0 0 0-.17 0L.09 8a.16.16 0 0 0-.09.11.16.16 0 0 0 .11.14l5 1.56a.16.16 0 0 0 .16 0l7.54-6.39L7 10.18a.16.16 0 0 0 0 .15.16.16 0 0 0 .11.11l5.82 1.76h.08a.16.16 0 0 0 .08-.1L16 .2a.16.16 0 0 0-.06-.2zM8.76 12.17l-1.61-.49a.16.16 0 0 0-.21.15v3a.16.16 0 0 0 .12.15.16.16 0 0 0 .14-.07l1.61-2.52a.16.16 0 0 0 0-.14.16.16 0 0 0-.05-.08z"/></svg><svg id="ico_tv" viewBox="-5 -5 26.01 25.97" width="26.01" height="25.97" x="765" y="417"><defs><style>.gico-tv__path{fill:#fff}</style></defs><path class="gico-tv__path" d="M14.68 4H9l2.24-2.68h.1a.67.67 0 1 0-.67-.65.66.66 0 0 0 0 .23L8.13 4h-.25L5.29.89a.67.67 0 0 0 0-.23.67.67 0 1 0-.67.67h.1L7 4H1.33A1.33 1.33 0 0 0 0 5.32v9.32A1.33 1.33 0 0 0 1.33 16h13.35A1.33 1.33 0 0 0 16 14.64V5.32A1.33 1.33 0 0 0 14.68 4zM12 13.31a1.33 1.33 0 0 1-1.33 1.33h-8a1.33 1.33 0 0 1-1.33-1.33V6.66a1.33 1.33 0 0 1 1.33-1.34h8A1.33 1.33 0 0 1 12 6.66v6.66zm2-5.95a1 1 0 1 1 1-1 1 1 0 0 1-1 1z"/></svg></svg>