<svg class="blurb-ico" data-name="params" id="params" viewBox="0 0 32 32" xmlns="http://www.w3.org/2000/svg">
	<defs>
		<style>.params{fill:#f3b61b;fill-rule:evenodd;}</style>
	</defs>
	<title>params</title>
	<path class="params" d="M8,6V3A3,3,0,0,0,2,3V6a5,5,0,0,0,0,8V29a3,3,0,1,0,6,0V14A5,5,0,0,0,8,6ZM4,3A1,1,0,0,1,6,3V5.1a5.08,5.08,0,0,0-2,0V3ZM6,29a1,1,0,1,1-2,0V14.9a5,5,0,0,0,2,0V29ZM7.87,10.84l0,0.16a3,3,0,0,1-.38.74v0a3,3,0,0,1-.62.63h0a3,3,0,0,1-3.6,0h0a3,3,0,0,1-.62-0.63v0A3,3,0,0,1,2.18,11l0-.16a2.69,2.69,0,0,1,0-1.68l0-.16a3,3,0,0,1,.38-0.74v0a3,3,0,0,1,.62-0.63h0A3.06,3.06,0,0,1,4,7.18,3,3,0,0,1,5,7a3,3,0,0,1,1,.18,3.06,3.06,0,0,1,.8.43h0a3.05,3.05,0,0,1,.62.63v0A3,3,0,0,1,7.82,9l0,0.16A2.69,2.69,0,0,1,7.87,10.84Z"/>
	<path class="params" d="M30,6V3a3,3,0,0,0-6,0V6a5,5,0,0,0,0,8V29a3,3,0,1,0,6,0V14A5,5,0,0,0,30,6ZM26,3a1,1,0,0,1,2,0V5.1a5.08,5.08,0,0,0-2,0V3Zm2,26a1,1,0,1,1-2,0V14.9a5,5,0,0,0,2,0V29Zm1.87-18.16,0,0.16a3,3,0,0,1-.38.74v0a3,3,0,0,1-.62.63h0a3,3,0,0,1-.8.43,3,3,0,0,1-2.8-.43h0a3,3,0,0,1-.62-0.63v0A3,3,0,0,1,24.18,11l0-.16a2.69,2.69,0,0,1,0-1.68l0-.16a3,3,0,0,1,.38-0.74v0a3.06,3.06,0,0,1,.62-0.63h0A3.06,3.06,0,0,1,26,7.18a2.81,2.81,0,0,1,2,0,3.06,3.06,0,0,1,.8.43h0a3.05,3.05,0,0,1,.62.63v0a3,3,0,0,1,.38.74l0,0.16A2.69,2.69,0,0,1,29.87,10.84Z"/>
	<path class="params" d="M19,18V3a3,3,0,0,0-6,0V18a5,5,0,0,0,0,8v3a3,3,0,1,0,6,0V26A5,5,0,0,0,19,18ZM15,3a1,1,0,0,1,2,0V17.1a5.07,5.07,0,0,0-2,0V3Zm2,26a1,1,0,1,1-2,0V26.9a5,5,0,0,0,2,0V29Zm1.87-6.16,0,0.16a3,3,0,0,1-.38.74v0a3,3,0,0,1-.62.63h0a3,3,0,0,1-3.6,0h0a3,3,0,0,1-.62-0.63v0A3,3,0,0,1,13.18,23l0-.16a2.69,2.69,0,0,1,0-1.68l0-.16a3,3,0,0,1,.38-0.74v0a3.06,3.06,0,0,1,.62-0.63h0a3.07,3.07,0,0,1,.8-0.43,2.82,2.82,0,0,1,2,0,3.07,3.07,0,0,1,.8.43h0a3.05,3.05,0,0,1,.62.63v0a3,3,0,0,1,.38.74l0,0.16A2.69,2.69,0,0,1,18.87,22.84Z"/>
</svg>
