<svg class="blurb-ico" data-name="settings" id="settings" viewBox="0 0 32 32" xmlns="http://www.w3.org/2000/svg">
	<defs>
		<style>.settings-path{fill:#f3b61b;}</style>
	</defs>
	<title>settings</title>
	<path class="settings-path" d="M30.39,12.68l-3.07-.61a12.09,12.09,0,0,0-.54-1.29l1.74-2.6a2,2,0,0,0-.25-2.52L26.35,3.72a2,2,0,0,0-2.52-.25l-2.6,1.74a12,12,0,0,0-1.29-.54L19.32,1.61a2,2,0,0,0-2-1.61H14.64a2,2,0,0,0-2,1.61L12.06,4.67a12.12,12.12,0,0,0-1.29.54L8.17,3.47a2,2,0,0,0-2.52.25L3.72,5.65a2,2,0,0,0-.25,2.52l1.74,2.6a11.93,11.93,0,0,0-.54,1.29l-3.07.61a2,2,0,0,0-1.61,2v2.72a2,2,0,0,0,1.61,2l3.07,0.61a12,12,0,0,0,.54,1.29l-1.74,2.6a2,2,0,0,0,.25,2.52l1.92,1.92a2,2,0,0,0,2.52.25l2.6-1.74a12,12,0,0,0,1.29.54l0.61,3.07a2,2,0,0,0,2,1.61h2.72a2,2,0,0,0,2-1.61l0.61-3.07a12,12,0,0,0,1.29-.54l2.6,1.74a2,2,0,0,0,2.52-.25l1.92-1.92a2,2,0,0,0,.25-2.52l-1.74-2.6a12,12,0,0,0,.54-1.29l3.07-.61a2,2,0,0,0,1.61-2V14.64A2,2,0,0,0,30.39,12.68ZM26.93,18a2,2,0,0,0-1.5,1.3A10,10,0,0,1,25,20.35a2,2,0,0,0,.14,2l1.74,2.6-1.92,1.92-2.6-1.74a2,2,0,0,0-2-.14,10,10,0,0,1-1.08.45,2,2,0,0,0-1.3,1.5L17.36,30H14.64L14,26.93a2,2,0,0,0-1.3-1.5A10,10,0,0,1,11.65,25a2,2,0,0,0-2,.14l-2.6,1.74L5.14,24.94l1.74-2.6a2,2,0,0,0,.14-2,10.14,10.14,0,0,1-.45-1.08A2,2,0,0,0,5.07,18L2,17.36V14.64L5.07,14a2,2,0,0,0,1.5-1.3A10,10,0,0,1,7,11.65a2,2,0,0,0-.14-2L5.14,7.06,7.06,5.14l2.6,1.74a2,2,0,0,0,2,.14,10,10,0,0,1,1.08-.45A2,2,0,0,0,14,5.07L14.64,2h2.72L18,5.07a2,2,0,0,0,1.3,1.5A10,10,0,0,1,20.35,7a2,2,0,0,0,2-.14l2.6-1.74,1.92,1.92-1.74,2.6a2,2,0,0,0-.14,2,10.11,10.11,0,0,1,.45,1.08,2,2,0,0,0,1.5,1.3L30,14.64v2.72Z"/>
	<path class="settings-path" d="M16,9a7,7,0,1,0,7,7A7,7,0,0,0,16,9Zm0,13.13A6.13,6.13,0,1,1,22.13,16,6.13,6.13,0,0,1,16,22.13Z"/>
	<path class="settings-path" d="M16,12a4,4,0,1,0,4,4A4,4,0,0,0,16,12Zm0,7a3,3,0,1,1,3-3A3,3,0,0,1,16,19Z"/>
</svg>
