<?xml version="1.0" encoding="utf-8"?>
<!-- Generator: Adobe Illustrator 19.2.1, SVG Export Plug-In . SVG Version: 6.00 Build 0)  -->
<svg version="1.1" id="title-slide1" xmlns="http://www.w3.org/2000/svg" xmlns:xlink="http://www.w3.org/1999/xlink" x="0px"
	 y="0px" viewBox="0 0 308 197" style="enable-background:new 0 0 308 197;" xml:space="preserve">
<style type="text/css">
	.st0{opacity:0.9;fill:#121212;enable-background:new    ;}
	.st1{fill:#F4B60D;}
	.st2{fill:#FFFFFF;}
	.st3{opacity:0.49;fill:#121212;enable-background:new    ;}
</style>
<path class="st0" d="M214,0v107h94v90H0V0"/>
<path class="st1" d="M53.5,63.7c2.8-1.9,4.2-4.8,4.2-8.7c0.1-2-0.5-4-1.6-5.6c-1.3-1.6-3-2.8-5-3.3c1.4-0.7,2.6-1.7,3.5-3
	c0.9-1.4,1.3-2.9,1.3-4.5c0.1-1.7-0.4-3.3-1.2-4.8c-0.8-1.3-2-2.4-3.3-3.1c-1.6-0.8-3.3-1.4-5-1.7c-2.1-0.4-4.3-0.5-6.4-0.5
	c-0.8,0-1.7,0-2.6,0c-0.9,0-1.8,0.1-2.8,0.2s-1.8,0.2-2.7,0.3c-0.9,0.1-1.7,0.3-2.5,0.4v36.3c1.7,0.4,3.5,0.7,5.3,0.8
	c2,0.1,4,0.2,6,0.2C46.4,66.6,50.7,65.7,53.5,63.7z M42,49.3c2.2-0.1,4.4,0.3,6.4,1.2c1.6,0.9,2.5,2.6,2.3,4.4
	c0.1,1-0.2,2.1-0.8,2.9c-0.5,0.8-1.3,1.4-2.1,1.8c-1,0.5-2,0.8-3.1,1c-1.3,0.2-2.6,0.3-3.9,0.3c-0.7,0-1.5,0-2.4,0
	c-0.9,0-1.7-0.1-2.5-0.2V49.3H42z M36,34.2c0.6-0.1,1.3-0.1,2.1-0.2c0.8,0,1.7,0,2.8,0c2.1-0.1,4.1,0.3,6,1.1
	c1.5,0.7,2.4,2.2,2.3,3.8c0.2,1.7-0.7,3.3-2.2,4c-1.9,0.8-4,1.2-6.1,1H36V34.2z"/>
<path class="st1" d="M85.9,65.9c1.8-0.7,3.3-1.7,4.6-3.1c1.2-1.4,2.1-3,2.7-4.7c0.6-1.9,0.9-3.9,0.9-5.9V28.8h-6.9v22.7
	c0,1.5-0.2,2.9-0.6,4.3c-0.3,1.1-0.9,2.1-1.6,2.9c-0.7,0.7-1.6,1.3-2.5,1.7c-1,0.4-2.1,0.6-3.2,0.5c-1.1,0-2.2-0.2-3.2-0.5
	c-0.9-0.4-1.8-0.9-2.5-1.7c-0.7-0.9-1.3-1.9-1.6-2.9c-0.4-1.4-0.6-2.9-0.6-4.3V28.8h-6.9v23.4c0,2,0.3,4,0.9,5.9
	c0.5,1.7,1.5,3.3,2.7,4.7c1.3,1.4,2.8,2.4,4.6,3.1c2.1,0.8,4.3,1.2,6.6,1.1C81.5,67,83.7,66.7,85.9,65.9z"/>
<path class="st1" d="M102.8,66.2h6.8V28.8h-6.8V66.2z"/>
<path class="st1" d="M125.3,60.3V28.8h-6.8v37.4h23.6v-5.9H125.3z"/>
<path class="st1" d="M154.2,34.4c1.4-0.1,2.9-0.2,4.3-0.2c4.6,0,8,1.1,10.2,3.4s3.3,5.5,3.3,9.8c0,4.2-1.1,7.4-3.4,9.8
	s-5.7,3.5-10.2,3.5c-1.1,0-2,0-2.6,0c-0.7,0-1.2,0-1.6-0.1L154.2,34.4L154.2,34.4z M177.6,38.9c-0.9-2.3-2.4-4.3-4.3-5.9
	c-2-1.6-4.2-2.8-6.7-3.5c-2.8-0.8-5.7-1.1-8.6-1.1c-1.5,0-3.2,0.1-5.2,0.2c-1.9,0.1-3.7,0.4-5.5,0.8v36.3c1.8,0.4,3.6,0.7,5.4,0.8
	c1.9,0.1,3.6,0.2,5.1,0.2c2.9,0,5.9-0.4,8.7-1.2c2.5-0.7,4.7-1.9,6.7-3.6c1.9-1.6,3.3-3.7,4.3-6c1.1-2.7,1.6-5.6,1.5-8.5
	C179.2,44.5,178.7,41.6,177.6,38.9L177.6,38.9z"/>
<path class="st2" d="M37.2,89.1c-1.5-2.8-2.9-5.6-4.2-8.4h-8c2,3.8,4.1,7.6,6.3,11.4s4.5,7.6,7,11.4v14.6h6.8v-14.7
	c2.5-3.8,4.8-7.6,7-11.4c2.2-3.8,4.3-7.6,6.3-11.4h-7.5c-1.2,2.8-2.7,5.6-4.2,8.4c-1.6,2.8-3.1,5.5-4.8,8.2
	C40.2,94.7,38.7,91.9,37.2,89.1z"/>
<path class="st2" d="M67.4,93.9c0.4-1.6,1.2-3,2.2-4.3c0.9-1.2,2.1-2.1,3.5-2.8c1.5-0.7,3-1,4.6-1c1.6,0,3.2,0.3,4.6,1
	c1.4,0.6,2.5,1.6,3.5,2.7c1,1.3,1.7,2.7,2.2,4.3c1,3.6,1,7.5,0,11.1c-0.4,1.6-1.2,3-2.2,4.3c-0.9,1.2-2.1,2.1-3.5,2.7
	c-1.4,0.7-3,1-4.6,1c-1.6,0-3.2-0.3-4.6-1c-1.4-0.6-2.5-1.6-3.5-2.7c-1-1.3-1.8-2.7-2.2-4.3c-0.5-1.8-0.8-3.7-0.8-5.6
	C66.7,97.5,66.9,95.7,67.4,93.9z M94.4,91c-0.9-2.3-2.2-4.4-3.9-6.1c-1.6-1.6-3.6-2.9-5.8-3.7c-4.5-1.7-9.4-1.7-13.9,0
	c-2.2,0.8-4.2,2.1-5.8,3.7c-1.7,1.7-3.1,3.8-4,6.1c-1.9,5.5-1.9,11.5,0,16.9c0.9,2.3,2.3,4.4,4,6.1c1.6,1.6,3.6,2.9,5.8,3.7
	c2.2,0.8,4.6,1.2,7,1.2c2.4,0,4.8-0.4,7-1.2c2.2-0.8,4.1-2.1,5.8-3.7c1.7-1.7,3-3.8,3.9-6.1c1-2.7,1.5-5.6,1.4-8.5
	C95.9,96.6,95.4,93.7,94.4,91z"/>
<path class="st2" d="M124.4,117.9c1.8-0.7,3.3-1.7,4.6-3.1c1.2-1.4,2.1-3,2.7-4.7c0.6-1.9,0.9-3.9,0.9-5.9V80.8h-6.9v22.7
	c0,1.5-0.2,2.9-0.6,4.3c-0.3,1.1-0.9,2.1-1.6,2.9c-0.7,0.7-1.6,1.3-2.5,1.7c-1,0.4-2.1,0.6-3.2,0.5c-1.1,0-2.2-0.2-3.2-0.5
	c-0.9-0.4-1.8-0.9-2.5-1.7c-0.8-0.8-1.3-1.9-1.6-2.9c-0.4-1.4-0.6-2.9-0.6-4.3V80.8h-6.9v23.4c0,2,0.3,4,0.9,5.9
	c0.5,1.7,1.5,3.3,2.7,4.7c1.3,1.4,2.8,2.4,4.6,3.1c2.1,0.8,4.3,1.2,6.6,1.1C120,119.1,122.3,118.7,124.4,117.9z"/>
<path class="st2" d="M146.6,80.6c-1.8,0.1-3.5,0.4-5.3,0.7v36.9h6.8V104h4.3c0.4,0,0.8,0,1.3-0.1c0.7,0.9,1.4,1.8,2.2,2.9
	c0.8,1.1,1.6,2.3,2.4,3.5c0.8,1.2,1.6,2.5,2.4,3.8c0.8,1.3,1.5,2.6,2.2,3.9h7.6c-0.7-1.4-1.4-2.8-2.2-4.3s-1.7-2.9-2.6-4.3
	c-0.9-1.4-1.8-2.7-2.6-3.9c-0.9-1.2-1.6-2.2-2.3-3c5-1.8,7.5-5.2,7.5-10.3c0-4.1-1.4-7.1-4.3-9.1c-2.9-2-7-3-12.4-3
	C150.2,80.4,148.5,80.5,146.6,80.6z M155.8,86.6c1,0.2,2,0.5,2.9,1c0.8,0.4,1.4,1.1,1.9,1.9c0.5,0.9,0.7,1.9,0.6,2.9
	c0,1-0.2,2.1-0.6,3c-0.4,0.8-1.1,1.5-1.9,1.9c-1,0.5-2.1,0.9-3.2,1c-1.4,0.2-2.9,0.3-4.4,0.3h-3V86.4c1.2-0.1,2.6-0.2,4-0.2
	C153.3,86.3,154.6,86.4,155.8,86.6L155.8,86.6z"/>
<path class="st2" d="M53.5,167.7c2.8-1.9,4.2-4.8,4.2-8.7c0.1-2-0.5-4-1.6-5.6c-1.3-1.6-3-2.8-5-3.4c1.4-0.7,2.6-1.7,3.5-3
	c0.9-1.4,1.3-2.9,1.3-4.5c0.1-1.7-0.4-3.3-1.2-4.8c-0.8-1.3-2-2.4-3.3-3.1c-1.6-0.8-3.3-1.4-5-1.7c-2.1-0.4-4.2-0.5-6.3-0.5
	c-0.8,0-1.7,0-2.6,0.1c-0.9,0-1.8,0.1-2.8,0.2s-1.8,0.2-2.7,0.3c-0.9,0.1-1.7,0.3-2.5,0.4v36.3c1.7,0.4,3.5,0.7,5.3,0.8
	c2,0.1,4,0.2,6,0.2C46.4,170.6,50.7,169.7,53.5,167.7z M42,153.3c2.2-0.1,4.4,0.3,6.4,1.2c1.6,0.9,2.5,2.6,2.3,4.4
	c0,1-0.2,2.1-0.8,2.9c-0.5,0.8-1.3,1.4-2.1,1.8c-1,0.5-2,0.8-3.1,0.9c-1.3,0.2-2.6,0.3-3.9,0.3c-0.7,0-1.5,0-2.4-0.1
	c-0.9,0-1.7-0.1-2.4-0.1v-11.4H42z M36,138.2c0.6-0.1,1.3-0.1,2.1-0.2c0.8,0,1.7-0.1,2.8-0.1c2.1-0.1,4.1,0.3,6,1.1
	c1.5,0.7,2.4,2.2,2.3,3.8c0.2,1.7-0.7,3.3-2.2,4c-1.9,0.8-4,1.2-6.1,1.1H36V138.2L36,138.2z"/>
<path class="st2" d="M85.9,169.9c1.8-0.7,3.3-1.7,4.6-3.1c1.2-1.4,2.1-3,2.7-4.7c0.6-1.9,0.9-3.9,0.9-5.9v-23.4h-6.9v22.7
	c0,1.5-0.2,2.9-0.6,4.4c-0.3,1.1-0.9,2.1-1.6,2.9c-0.7,0.7-1.6,1.3-2.5,1.7c-1,0.4-2.1,0.6-3.2,0.5c-1.1,0-2.2-0.2-3.2-0.5
	c-0.9-0.4-1.8-0.9-2.5-1.7c-0.7-0.9-1.3-1.9-1.6-2.9c-0.4-1.4-0.6-2.9-0.6-4.4v-22.7h-6.9v23.4c0,2,0.3,4,0.9,5.9
	c0.5,1.7,1.5,3.3,2.7,4.7c1.3,1.4,2.8,2.4,4.6,3.1c2.1,0.8,4.3,1.2,6.6,1.1C81.5,171,83.7,170.7,85.9,169.9z"/>
<path class="st2" d="M105.8,164.3c-1.4-0.4-2.7-1-3.9-1.6l-2,5.6c0.6,0.3,1.1,0.6,1.7,0.8c0.8,0.3,1.7,0.6,2.6,0.9
	c1.1,0.3,2.3,0.6,3.4,0.7c1.4,0.2,2.8,0.3,4.2,0.3c4.6,0,8.1-0.9,10.5-2.8c2.4-1.9,3.7-4.8,3.6-7.9c0-1.5-0.2-3.1-0.8-4.5
	c-0.5-1.2-1.2-2.3-2.2-3.2c-1-1-2.2-1.8-3.5-2.4c-1.4-0.7-3-1.3-4.7-2c-1-0.4-1.9-0.7-2.8-1.1c-0.8-0.4-1.5-0.8-2.2-1.3
	c-0.6-0.4-1.1-1-1.5-1.6c-0.4-0.7-0.5-1.4-0.5-2.1c-0.1-1.3,0.5-2.5,1.5-3.2c1.3-0.8,2.8-1.2,4.3-1.1c1.5,0,3,0.2,4.5,0.5
	c1.4,0.3,2.7,0.9,4,1.6l2.1-5.5c-1.4-0.7-2.8-1.3-4.3-1.7c-2-0.5-4.1-0.8-6.2-0.8c-4,0-7.2,1-9.6,2.9c-2.4,2-3.7,4.9-3.5,8
	c0,1.4,0.2,2.9,0.8,4.2c0.5,1.1,1.3,2.2,2.2,3c1,0.9,2,1.6,3.2,2.1c1.2,0.6,2.5,1.1,3.8,1.5s2.4,0.9,3.5,1.3
	c0.9,0.4,1.8,0.9,2.6,1.5c0.7,0.5,1.2,1.1,1.6,1.8c0.4,0.7,0.6,1.5,0.6,2.3c0.1,1.4-0.6,2.7-1.7,3.5c-1.1,0.8-2.9,1.2-5.3,1.2
	C109.8,165.2,107.8,164.9,105.8,164.3z"/>
<path class="st2" d="M131.9,170.2h6.8v-37.4h-6.8V170.2z"/>
<path class="st2" d="M178.7,170.2v-37.4h-6.8v24.8c-1.2-1.9-2.6-4-4.2-6.3s-3.2-4.5-4.9-6.7c-1.7-2.2-3.3-4.4-5-6.4
	c-1.7-2.1-3.2-3.9-4.6-5.4h-5.6v37.4h6.7v-26.8c1.5,1.8,3.1,3.8,4.8,6.1c1.7,2.2,3.3,4.6,4.9,7c1.6,2.4,3.2,4.8,4.7,7.1
	s2.9,4.6,4.1,6.6L178.7,170.2L178.7,170.2z"/>
<path class="st2" d="M213,170.2v-5.8h-18.6v-11h15.3v-5.7h-15.3v-9.2h17.2v-5.8h-24v37.4L213,170.2L213,170.2z"/>
<path class="st2" d="M222.4,164.3c-1.4-0.4-2.7-1-3.9-1.6l-2,5.6c0.6,0.3,1.1,0.6,1.7,0.8c0.8,0.3,1.7,0.6,2.6,0.9
	c1.1,0.3,2.3,0.6,3.4,0.7c1.4,0.2,2.8,0.3,4.2,0.3c4.6,0,8.1-0.9,10.5-2.8c2.4-1.9,3.7-4.8,3.6-7.9c0-1.5-0.2-3.1-0.8-4.5
	c-0.5-1.2-1.2-2.3-2.2-3.2c-1-1-2.2-1.8-3.5-2.4c-1.4-0.7-3-1.3-4.7-2c-1-0.4-1.9-0.7-2.8-1.1c-0.8-0.4-1.5-0.8-2.2-1.3
	c-0.6-0.4-1.1-1-1.5-1.6c-0.4-0.7-0.5-1.4-0.5-2.1c-0.1-1.3,0.5-2.5,1.5-3.2c1.3-0.8,2.8-1.2,4.3-1.1c1.5,0,3,0.2,4.5,0.5
	c1.4,0.3,2.7,0.9,4,1.6l2.1-5.5c-1.4-0.7-2.8-1.3-4.3-1.7c-2-0.5-4.1-0.8-6.2-0.8c-4,0-7.2,1-9.6,2.9c-2.4,2-3.7,4.9-3.5,8
	c0,1.4,0.2,2.9,0.8,4.2c0.5,1.1,1.3,2.2,2.2,3c1,0.9,2,1.6,3.2,2.1c1.2,0.6,2.5,1.1,3.8,1.5s2.4,0.9,3.5,1.3
	c0.9,0.4,1.8,0.9,2.6,1.5c0.7,0.5,1.2,1.1,1.6,1.8c0.4,0.7,0.6,1.5,0.6,2.3c0.1,1.4-0.6,2.7-1.7,3.5c-1.1,0.8-2.9,1.2-5.4,1.2
	C226.3,165.2,224.3,164.9,222.4,164.3z"/>
<path class="st2" d="M251.5,164.3c-1.4-0.4-2.7-1-3.9-1.6l-2,5.6c0.6,0.3,1.1,0.6,1.7,0.8c0.8,0.3,1.7,0.6,2.6,0.9
	c1.1,0.3,2.3,0.6,3.4,0.7c1.4,0.2,2.8,0.3,4.2,0.3c4.6,0,8.1-0.9,10.5-2.8c2.4-1.9,3.7-4.8,3.6-7.9c0-1.5-0.2-3.1-0.8-4.5
	c-0.5-1.2-1.2-2.3-2.2-3.2c-1-1-2.2-1.8-3.5-2.4c-1.4-0.7-3-1.3-4.7-2c-1-0.4-1.9-0.7-2.8-1.1c-0.8-0.4-1.5-0.8-2.2-1.3
	c-0.6-0.4-1.1-1-1.5-1.6c-0.4-0.7-0.5-1.4-0.5-2.1c-0.1-1.3,0.5-2.5,1.5-3.2c1.3-0.8,2.8-1.2,4.3-1.1c1.5,0,3,0.2,4.5,0.5
	c1.4,0.3,2.7,0.9,4,1.6l2.1-5.5c-1.4-0.7-2.8-1.3-4.3-1.7c-2-0.5-4.1-0.8-6.2-0.8c-4,0-7.2,1-9.6,2.9c-2.4,2-3.7,4.9-3.5,8
	c0,1.4,0.2,2.9,0.8,4.2c0.5,1.1,1.3,2.2,2.2,3c1,0.9,2,1.6,3.2,2.1c1.2,0.6,2.5,1.1,3.8,1.5c1.3,0.5,2.4,0.9,3.5,1.3
	c0.9,0.4,1.8,0.9,2.6,1.5c0.7,0.4,1.2,1,1.7,1.7c0.4,0.7,0.6,1.5,0.6,2.3c0.1,1.4-0.6,2.7-1.7,3.5c-1.1,0.8-2.9,1.2-5.4,1.2
	C255.5,165.1,253.5,164.9,251.5,164.3z"/>
<path class="st3" d="M86-133.2"/>
</svg>
