<svg data-name="twitter" id="twitter-svg" class="ico-soc-menu" viewBox="0 0 16 13" xmlns="http://www.w3.org/2000/svg">
	<defs>
		<!-- <style>.twitter{fill:#ccc;}</style> -->
	</defs>
	<title>twitter</title>
	<path class="twitter" d="M16,1.56a5.79,5.79,0,0,1-1.83.52A3.5,3.5,0,0,0,15.54.29,5.35,5.35,0,0,1,13.48,1h0a3.3,3.3,0,0,0-5.6,3h0A9.52,9.52,0,0,1,.89.61,3.3,3.3,0,0,0,1.89,5,2.12,2.12,0,0,1,.45,4.6,3.18,3.18,0,0,0,3,7.83a2.59,2.59,0,0,1-1.37.1,3.12,3.12,0,0,0,3,2.24A5.41,5.41,0,0,1,0,11.54,9.91,9.91,0,0,0,5.16,13,9.17,9.17,0,0,0,14.4,3.36v0s0,0,0,0,0,0,0,0A5.68,5.68,0,0,0,16,1.56Z"/>
</svg>