<svg data-name="Слой 1" id="logo-svg" viewBox="0 0 204.82 37.78" xmlns="http://www.w3.org/2000/svg" xmlns:xlink="http://www.w3.org/1999/xlink">
	<defs>
		<style>
			.logo-p1,.logo-p2,.logo-p3,.logo-p4{fill-rule:evenodd;}
			.logo-p1{fill:url(#Безымянный_градиент_24);}
			.logo-p2{fill:url(#Безымянный_градиент_18);}
			.logo-p3{fill:url(#Безымянный_градиент_14);}
			.logo-p4{fill:url(#Безымянный_градиент_10);}
			.logo-p5{fill:#fff;}
			.logo-p6{fill:#333;}
		</style>
		<linearGradient gradientUnits="userSpaceOnUse" id="Безымянный_градиент_24" x1="27" x2="27" y1="1.78" y2="19.78">
			<stop offset="0" stop-color="#e89523"/>
			<stop offset="1" stop-color="#f3c118"/>
		</linearGradient>
		<linearGradient gradientUnits="userSpaceOnUse" id="Безымянный_градиент_18" x2="18" y1="1.78" y2="19.78">
			<stop offset="0" stop-color="#f6a41c"/>
			<stop offset="1" stop-color="#fbcd2f"/>
		</linearGradient>
		<linearGradient gradientUnits="userSpaceOnUse" id="Безымянный_градиент_14" x2="18" y1="19.78" y2="37.78">
			<stop offset="0" stop-color="#fec344"/>
			<stop offset="1" stop-color="#ffdf7d"/>
		</linearGradient>
		<linearGradient gradientUnits="userSpaceOnUse" id="Безымянный_градиент_10" x1="18" x2="36" y1="19.78" y2="37.78">
			<stop offset="0" stop-color="#fdb628"/>
			<stop offset="1" stop-color="#ffd75f"/>
		</linearGradient>
	</defs>
	<title>logo</title>
	<path class="logo-p1" d="M18,1.78H36v18H18v-18Z"/>
	<path class="logo-p2" d="M0,1.78H18v18H0v-18Z"/>
	<path class="logo-p3" d="M0,19.78H18v18H0v-18Z"/>
	<path class="logo-p4" d="M18,19.78H36v18H18v-18Z"/>
	<path class="logo-p5" d="M21.61,16.46l3.07-.61a12.07,12.07,0,0,1,.54-1.29L23.47,12a2,2,0,0,1,.25-2.52L25.65,7.5a2,2,0,0,1,2.52-.25L30.78,9a12.05,12.05,0,0,1,1.29-.54l0.61-3.07a2,2,0,0,1,2-1.61h2.72a2,2,0,0,1,2,1.61l0.61,3.07A12.17,12.17,0,0,1,41.22,9l2.6-1.74a2,2,0,0,1,2.52.25l1.92,1.92A2,2,0,0,1,48.53,12l-1.74,2.6a11.92,11.92,0,0,1,.54,1.29l3.07,0.61a2,2,0,0,1,1.61,2v2.72a2,2,0,0,1-1.61,2l-3.07.61A12.07,12.07,0,0,1,46.79,25l1.74,2.6a2,2,0,0,1-.25,2.52l-1.92,1.92a2,2,0,0,1-2.52.25l-2.6-1.74a12.06,12.06,0,0,1-1.29.54l-0.61,3.07a2,2,0,0,1-2,1.61H34.64a2,2,0,0,1-2-1.61l-0.61-3.07a12.11,12.11,0,0,1-1.29-.54l-2.6,1.74a2,2,0,0,1-2.52-.25l-1.92-1.92a2,2,0,0,1-.25-2.52L25.21,25a11.94,11.94,0,0,1-.54-1.29l-3.07-.61a2,2,0,0,1-1.61-2V18.42A2,2,0,0,1,21.61,16.46Zm3.46,5.29a2,2,0,0,1,1.5,1.3A10,10,0,0,0,27,24.13a2,2,0,0,1-.14,2l-1.74,2.6,1.92,1.92,2.6-1.74a2,2,0,0,1,2-.14,10,10,0,0,0,1.08.45,2,2,0,0,1,1.3,1.5l0.61,3.07h2.72L38,30.71a2,2,0,0,1,1.3-1.5,9.91,9.91,0,0,0,1.08-.45,2,2,0,0,1,2,.14l2.6,1.74,1.92-1.92-1.74-2.6a2,2,0,0,1-.14-2,10.08,10.08,0,0,0,.45-1.07,2,2,0,0,1,1.5-1.3L50,21.14V18.42l-3.07-.61a2,2,0,0,1-1.5-1.3A10,10,0,0,0,45,15.43a2,2,0,0,1,.14-2l1.74-2.6L44.94,8.92l-2.6,1.74a2,2,0,0,1-2,.14,10,10,0,0,0-1.08-.45A2,2,0,0,1,38,8.85L37.36,5.78H34.64L34,8.85a2,2,0,0,1-1.3,1.5,10,10,0,0,0-1.08.45,2,2,0,0,1-2-.14l-2.6-1.74-1.92,1.92,1.74,2.6a2,2,0,0,1,.14,2,10.08,10.08,0,0,0-.45,1.08,2,2,0,0,1-1.5,1.3L22,18.42v2.72Z"/>
	<path class="logo-p5" d="M36,12.78a7,7,0,1,1-7,7A7,7,0,0,1,36,12.78ZM36,25.9a6.12,6.12,0,1,0-6.12-6.12A6.13,6.13,0,0,0,36,25.9Z"/>
	<path class="logo-p5" d="M36,15.78a4,4,0,1,1-4,4A4,4,0,0,1,36,15.78Zm0,7a3,3,0,1,0-3-3A3,3,0,0,0,36,22.78Z"/>
	<path class="logo-p6" d="M47.58,37.28H48.4V29H47.58v8.32Z"/>
	<path class="logo-p6" d="M60.26,37.28V29h-0.8v6.77q-0.37-.66-1-1.55t-1.26-1.82q-0.67-.93-1.37-1.83T54.56,29H53.92v8.32h0.8v-7q0.34,0.41.78,1t0.9,1.2q0.46,0.64.93,1.32l0.89,1.32q0.43,0.64.78,1.2t0.58,1h0.68Z"/>
	<path class="logo-p6" d="M72,31.27a3.57,3.57,0,0,0-.94-1.32,4,4,0,0,0-1.45-.79,6.14,6.14,0,0,0-1.85-.26q-0.5,0-1.06.05a5.53,5.53,0,0,0-1,.17v8a6.46,6.46,0,0,0,1,.16q0.55,0.05,1.06.05a6.14,6.14,0,0,0,1.85-.26,4,4,0,0,0,1.45-.79A3.57,3.57,0,0,0,72,35,5.28,5.28,0,0,0,72,31.27ZM66.6,29.68l0.37,0a8.67,8.67,0,0,1,.94,0,4.57,4.57,0,0,1,1.57.25,3.06,3.06,0,0,1,1.13.7,2.9,2.9,0,0,1,.68,1.1,4.4,4.4,0,0,1,.23,1.46,4.45,4.45,0,0,1-.23,1.47,2.89,2.89,0,0,1-.68,1.11,3.05,3.05,0,0,1-1.13.7,4.57,4.57,0,0,1-1.57.25,8.67,8.67,0,0,1-.94,0l-0.37,0V29.68Z"/>
	<path class="logo-p6" d="M82,37.21a2.43,2.43,0,0,0,.94-0.7,2.79,2.79,0,0,0,.52-1,4.84,4.84,0,0,0,.16-1.28V29H82.79v5.12a3.84,3.84,0,0,1-.16,1.18,2.28,2.28,0,0,1-.45.82,1.76,1.76,0,0,1-.7.48,2.74,2.74,0,0,1-1.82,0,1.76,1.76,0,0,1-.7-0.48,2.28,2.28,0,0,1-.45-0.82,3.84,3.84,0,0,1-.16-1.18V29H77.53V34.2a4.84,4.84,0,0,0,.16,1.28,2.79,2.79,0,0,0,.52,1,2.43,2.43,0,0,0,.94.7A4.07,4.07,0,0,0,82,37.21Z"/>
	<path class="logo-p6" d="M90.11,36.69a4.45,4.45,0,0,1-.62-0.15A4.15,4.15,0,0,1,89,36.36l-0.32-.17-0.26.71,0.34,0.17a4.13,4.13,0,0,0,.53.19,5.6,5.6,0,0,0,.71.15,5.88,5.88,0,0,0,.88.06A3.59,3.59,0,0,0,93,36.9a2,2,0,0,0,.79-1.69,2.22,2.22,0,0,0-.19-1,2,2,0,0,0-.52-0.67,3.35,3.35,0,0,0-.76-0.48l-0.93-.41-0.76-.32A3.2,3.2,0,0,1,90,32a1.4,1.4,0,0,1-.4-0.46,1.34,1.34,0,0,1-.14-0.65,1.36,1.36,0,0,1,.14-0.64A1.25,1.25,0,0,1,90,29.82a1.58,1.58,0,0,1,.57-0.25,3.16,3.16,0,0,1,.73-0.08,3.85,3.85,0,0,1,1.07.14,2.9,2.9,0,0,1,.85.38l0.29-.68a2.07,2.07,0,0,0-.39-0.2A4.62,4.62,0,0,0,92.59,29,5.1,5.1,0,0,0,92,28.83a4.51,4.51,0,0,0-.66,0,3.13,3.13,0,0,0-2,.55A1.93,1.93,0,0,0,88.64,31a2,2,0,0,0,.15.82,1.84,1.84,0,0,0,.44.62,3.16,3.16,0,0,0,.7.48,9.2,9.2,0,0,0,.92.42l0.78,0.32a3,3,0,0,1,.66.36,1.63,1.63,0,0,1,.46.52,1.53,1.53,0,0,1,.17.76,1.27,1.27,0,0,1-.54,1.15,2.74,2.74,0,0,1-1.51.35A4.52,4.52,0,0,1,90.11,36.69Z"/>
	<path class="logo-p6" d="M97.79,29v0.71h2.66v7.61h0.82V29.67h2.66V29H97.79Z"/>
	<path class="logo-p6" d="M113.26,29.54a4.3,4.3,0,0,0-2.59-.65q-0.49,0-1.07.05a5.85,5.85,0,0,0-1,.17v8.16h0.82V33.92h1.34q0.38,0,.77,0l0.5,0.67q0.29,0.38.59,0.83t0.6,0.93q0.29,0.48.55,1h0.88a10.33,10.33,0,0,0-.53-1q-0.31-.53-0.64-1t-0.63-.89l-0.5-.65a2.79,2.79,0,0,0,1.3-.78,2.11,2.11,0,0,0,.49-1.48A2.24,2.24,0,0,0,113.26,29.54Zm-1.56.14a2.29,2.29,0,0,1,.8.29,1.64,1.64,0,0,1,.56.57,1.75,1.75,0,0,1,.22.91,1.79,1.79,0,0,1-.22.95,1.43,1.43,0,0,1-.59.53,2.55,2.55,0,0,1-.88.24,10,10,0,0,1-1.07.05H109.4V29.68l0.57-.05q0.34,0,.8,0A5.45,5.45,0,0,1,111.7,29.68Z"/>
	<path class="logo-p6" d="M119.36,37.28h0.82V29h-0.82v8.32Z"/>
	<path class="logo-p6" d="M132.2,37.28q-0.5-1.3-.92-2.42t-0.82-2.12q-0.41-1-.8-1.92T128.82,29H128.1q-0.44.93-.84,1.85t-0.8,1.92q-0.41,1-.83,2.12t-0.89,2.42h0.85L126,36.1q0.2-.57.41-1.1h4.06l0.38,1.1q0.2,0.57.44,1.18h0.9ZM129.33,32q0.44,1.07.9,2.3h-3.55q0.46-1.23.89-2.3t0.88-2.1Q128.89,30.93,129.33,32Z"/>
	<path class="logo-p6" d="M137.57,36.57V29h-0.82v8.32h4.73V36.57h-3.91Z"/>
	<path class="logo-p6" d="M151.37,29v0.71H154v7.61h0.82V29.67h2.66V29h-6.14Z"/>
	<path class="logo-p6" d="M167.49,32.58H163V29h-0.82v8.32H163v-4h4.51v4h0.82V29h-0.82v3.61Z"/>
	<path class="logo-p6" d="M178.94,37.28V36.57h-4.3V33.26h3.55v-0.7h-3.55V29.67h4V29h-4.8v8.32h5.11Z"/>
	<path class="logo-p6" d="M188.33,36.08q0.12-.3.34-0.79l0.5-1.07,0.56-1.2,0.55-1.16,0.47-.95q0.2-.41.3-0.58,0.16,1.5.25,3.26t0.16,3.69h0.83Q192.18,35,192,32.94t-0.34-4H191q-0.36.6-.77,1.39T189.43,32l-0.78,1.67q-0.38.82-.67,1.48-0.29-.66-0.67-1.48L186.54,32q-0.4-.85-0.81-1.63T185,29h-0.72q-0.2,1.9-.34,4t-0.25,4.34h0.8q0.07-1.93.16-3.69t0.25-3.26q0.1,0.17.3,0.58l0.47,0.95L186.18,33l0.57,1.2,0.5,1.07q0.22,0.49.34,0.79h0.73Z"/>
	<path class="logo-p6" d="M202.7,37.28V36.57h-4.3V33.26H202v-0.7h-3.55V29.67h4V29h-4.8v8.32h5.11Z"/>
	<path class="logo-p6" d="M60.43,21.92a5.45,5.45,0,0,0,2.34-4.81,5.15,5.15,0,0,0-.9-3.12,5.47,5.47,0,0,0-2.79-1.86,5,5,0,0,0,2-1.68,4.42,4.42,0,0,0,.7-2.52,5,5,0,0,0-.66-2.67,4.92,4.92,0,0,0-1.85-1.74,8.92,8.92,0,0,0-2.8-.94,20.3,20.3,0,0,0-3.51-.29l-1.45,0-1.55.09q-0.78.06-1.53,0.17L47,2.79V23a15.52,15.52,0,0,0,2.94.43q1.68,0.1,3.33.11Q58.09,23.52,60.43,21.92Zm-6.39-8a7.65,7.65,0,0,1,3.57.69,2.54,2.54,0,0,1,1.29,2.46,2.79,2.79,0,0,1-.43,1.62,3.11,3.11,0,0,1-1.17,1,5.64,5.64,0,0,1-1.74.52,14.73,14.73,0,0,1-2.17.15l-1.32,0q-0.72,0-1.35-.09V13.92H54ZM50.71,5.49q0.48-.06,1.16-0.09t1.54,0A7.51,7.51,0,0,1,56.73,6,2.19,2.19,0,0,1,58,8.13a2.25,2.25,0,0,1-1.23,2.21,7.69,7.69,0,0,1-3.39.61H50.71V5.49Z"/>
	<path class="logo-p6" d="M79.39,7.59H75.76V20.28a7.35,7.35,0,0,1-1.09.15q-0.74.06-1.39,0.06a2.88,2.88,0,0,1-2.57-1.08,6.63,6.63,0,0,1-.73-3.6V7.59H66.34v8.79a12.16,12.16,0,0,0,.33,2.93,5.9,5.9,0,0,0,1.09,2.3,5.08,5.08,0,0,0,2,1.5,8.14,8.14,0,0,0,3.16.54,22.15,22.15,0,0,0,3.69-.29q1.68-.28,2.73-0.55V7.59Z"/>
	<path class="logo-p6" d="M87.67,7.59H84V23.28h3.63V7.59ZM87.4,1.35a2.24,2.24,0,0,0-1.56-.6,2.28,2.28,0,0,0-1.59.6A2.12,2.12,0,0,0,83.59,3a2.08,2.08,0,0,0,.66,1.62,2.28,2.28,0,0,0,1.59.6,2.24,2.24,0,0,0,1.56-.6A2.08,2.08,0,0,0,88.06,3,2.12,2.12,0,0,0,87.4,1.35Z"/>
	<path class="logo-p6" d="M98.26,20.58a5.73,5.73,0,0,1-1.19-.25,1.68,1.68,0,0,1-.73-0.48A1.77,1.77,0,0,1,96,19.08a5,5,0,0,1-.1-1.11V0l-3.63.6V18.66a7.77,7.77,0,0,0,.26,2.09,3.34,3.34,0,0,0,.88,1.53,4.12,4.12,0,0,0,1.7.95,9.86,9.86,0,0,0,2.69.36Z"/>
	<path class="logo-p6" d="M105,11.73a3.25,3.25,0,0,1,2.9-1.35,5,5,0,0,1,1.69.28,5.65,5.65,0,0,1,1.27.62v9a10,10,0,0,1-1,.16,12.48,12.48,0,0,1-1.48.07,3.88,3.88,0,0,1-3.15-1.36A5.7,5.7,0,0,1,104,15.39,6.44,6.44,0,0,1,105,11.73ZM114.46,0l-3.63.6V8.13a9,9,0,0,0-1.5-.6,6.79,6.79,0,0,0-2-.27,7.12,7.12,0,0,0-3,.59,6.08,6.08,0,0,0-2.19,1.67,7.38,7.38,0,0,0-1.36,2.6,11.47,11.47,0,0,0-.46,3.38,9.84,9.84,0,0,0,.55,3.41,7.19,7.19,0,0,0,1.59,2.58A6.93,6.93,0,0,0,105,23.1a9.16,9.16,0,0,0,3.33.57,21.07,21.07,0,0,0,3.43-.27,21.46,21.46,0,0,0,2.71-.6V0Z"/>
	<path class="logo-p6" d="M139.06,10.8h-9V2.49h-3.78V23.28H130V14.07h9v9.21h3.78V2.49h-3.78V10.8Z"/>
	<path class="logo-p6" d="M161.27,12a7.73,7.73,0,0,0-1.54-2.6,6.71,6.71,0,0,0-2.38-1.66,7.8,7.8,0,0,0-3-.58,7.68,7.68,0,0,0-3,.59,6.89,6.89,0,0,0-2.39,1.66,7.58,7.58,0,0,0-1.56,2.6,9.75,9.75,0,0,0-.56,3.38,9.87,9.87,0,0,0,.56,3.39,7.69,7.69,0,0,0,1.54,2.61,6.91,6.91,0,0,0,2.37,1.68,7.6,7.6,0,0,0,3.06.6,7.71,7.71,0,0,0,3.07-.6,6.88,6.88,0,0,0,2.38-1.68,7.5,7.5,0,0,0,1.53-2.61,10.13,10.13,0,0,0,.54-3.39A9.76,9.76,0,0,0,161.27,12Zm-4.17,7.13a3.54,3.54,0,0,1-5.61,0,6.25,6.25,0,0,1-1-3.75,6.12,6.12,0,0,1,1-3.7,3.56,3.56,0,0,1,5.61,0,6.12,6.12,0,0,1,1,3.71A6.25,6.25,0,0,1,157.1,19.17Z"/>
	<path class="logo-p6" d="M174.52,23.28h3.63V14.61a16.94,16.94,0,0,0-.09-1.8,8,8,0,0,0-.33-1.59,5.37,5.37,0,0,1,1.17-.56,4.77,4.77,0,0,1,1.65-.28,2.39,2.39,0,0,1,2.31,1.09,7.81,7.81,0,0,1,.6,3.56v8.25h3.63V14.46a15.65,15.65,0,0,0-.25-2.93,5.72,5.72,0,0,0-.93-2.28A4.43,4.43,0,0,0,184,7.79a7.49,7.49,0,0,0-3-.53,6.84,6.84,0,0,0-1.43.15,10.45,10.45,0,0,0-1.33.38,8.66,8.66,0,0,0-1.14.49,7.06,7.06,0,0,0-.84.51,5.14,5.14,0,0,0-1.72-1.11,7.14,7.14,0,0,0-2.65-.42,22.78,22.78,0,0,0-3.58.27,24.25,24.25,0,0,0-2.74.57V23.28h3.63V10.62l1.08-.15a10.7,10.7,0,0,1,1.32-.09,2.4,2.4,0,0,1,2.29,1.09,7.65,7.65,0,0,1,.62,3.56v8.25Z"/>
	<path class="logo-p6" d="M191.14,18.77a7,7,0,0,0,1.47,2.58,6.7,6.7,0,0,0,2.52,1.71,9.63,9.63,0,0,0,3.6.62,13.87,13.87,0,0,0,1.59-.09q0.78-.09,1.46-0.22a11.62,11.62,0,0,0,1.2-.3,5.76,5.76,0,0,0,.82-0.32l-0.48-3a9.93,9.93,0,0,1-1.72.51,11.28,11.28,0,0,1-2.41.24,5.07,5.07,0,0,1-3.43-1,4.14,4.14,0,0,1-1.34-2.93h10.35q0-.3,0-0.67t0-.67q0-4-1.81-6a6.46,6.46,0,0,0-5.05-2,7.25,7.25,0,0,0-2.7.52,6.76,6.76,0,0,0-2.34,1.56,7.62,7.62,0,0,0-1.63,2.6,9.86,9.86,0,0,0-.61,3.63A10.53,10.53,0,0,0,191.14,18.77Zm3.3-4.87a6.33,6.33,0,0,1,.33-1.35,3.77,3.77,0,0,1,.67-1.17,3.35,3.35,0,0,1,1.06-.82,3.25,3.25,0,0,1,1.47-.31,3.16,3.16,0,0,1,1.4.29,2.91,2.91,0,0,1,1,.78,3.44,3.44,0,0,1,.62,1.17,4.78,4.78,0,0,1,.21,1.43h-6.75Z"/>
</svg>
