<?xml version="1.0" standalone="no"?>
<!DOCTYPE svg PUBLIC "-//W3C//DTD SVG 20010904//EN"
 "http://www.w3.org/TR/2001/REC-SVG-20010904/DTD/svg10.dtd">
<svg version="1.0" xmlns="http://www.w3.org/2000/svg"
 width="143.000000pt" height="62.000000pt" viewBox="0 0 143.000000 62.000000"
 preserveAspectRatio="xMidYMid meet">
<metadata>
Created by potrace 1.13, written by Peter Selinger 2001-2015
</metadata>
<g transform="translate(0.000000,62.000000) scale(0.100000,-0.100000)"
fill="#000000" stroke="none">
<path d="M690 320 l0 -160 30 0 31 0 -5 148 c-3 81 -5 153 -5 160 -1 6 -12 12
-26 12 l-25 0 0 -160z"/>
<path d="M860 321 l0 -161 30 0 31 0 -3 158 -3 157 -27 3 -28 3 0 -160z"/>
<path d="M1040 319 l0 -160 28 3 c15 2 26 6 25 11 -2 4 -3 75 -3 157 l0 150
-25 0 -25 0 0 -161z"/>
<path d="M760 447 c0 -13 5 -28 12 -35 9 -9 8 -21 -2 -51 -10 -32 -10 -46 -1
-70 7 -16 11 -51 10 -78 -3 -46 -2 -48 24 -51 l27 -3 0 69 c0 50 -4 73 -15 82
-14 12 -14 15 0 30 17 19 20 67 5 104 -13 35 -60 37 -60 3z"/>
<path d="M930 451 c0 -11 5 -23 10 -26 14 -9 13 -51 -2 -75 -10 -16 -10 -24 0
-40 14 -24 16 -86 2 -95 -5 -3 -10 -17 -10 -31 0 -31 31 -33 61 -3 18 18 21
30 17 76 -3 32 -11 58 -19 64 -11 6 -11 11 -1 21 15 15 16 82 2 109 -14 26
-60 26 -60 0z"/>
</g>
</svg>
