<svg data-name="skype" id="skype-svg" class="ico-soc-menu" viewBox="0 0 16 16" xmlns="http://www.w3.org/2000/svg">
	<defs>
		<!-- <style>.skype{fill:#ccc;}</style> -->
	</defs>
	<title>skype</title>
	<path class="skype" d="M14.83,9.08a7.08,7.08,0,0,0-7-8.2A7.13,7.13,0,0,0,6.71,1,4.06,4.06,0,0,0,.82,6.51,7.13,7.13,0,0,0,9.26,15,4.06,4.06,0,0,0,14.83,9.08Zm-3.72,2a2.75,2.75,0,0,1-1.23.94A5,5,0,0,1,8,12.4a4.63,4.63,0,0,1-2.2-.46,2.83,2.83,0,0,1-1-.89A1.91,1.91,0,0,1,4.37,10,0.69,0.69,0,0,1,4.6,9.44a0.82,0.82,0,0,1,.59-0.22,0.73,0.73,0,0,1,.49.17A1.32,1.32,0,0,1,6,9.9a3.22,3.22,0,0,0,.37.66A1.47,1.47,0,0,0,7,11a2.23,2.23,0,0,0,1,.17,2.28,2.28,0,0,0,1.32-.35A1,1,0,0,0,9.74,10a0.88,0.88,0,0,0-.27-0.67,1.8,1.8,0,0,0-.71-0.39C8.47,8.8,8.08,8.71,7.6,8.6A9.16,9.16,0,0,1,6,8.12a2.61,2.61,0,0,1-1-.76,1.87,1.87,0,0,1-.38-1.2A1.94,1.94,0,0,1,5,4.93a2.54,2.54,0,0,1,1.17-.82,5.19,5.19,0,0,1,1.81-.28A4.84,4.84,0,0,1,9.37,4a3.12,3.12,0,0,1,1,.5,2.16,2.16,0,0,1,.58.66,1.41,1.41,0,0,1,.18.67,0.8,0.8,0,0,1-.81.78,0.7,0.7,0,0,1-.48-0.14A1.91,1.91,0,0,1,9.51,6a2.16,2.16,0,0,0-.59-0.73A1.84,1.84,0,0,0,7.81,5a2,2,0,0,0-1.14.29A0.82,0.82,0,0,0,6.24,6a0.66,0.66,0,0,0,.15.43,1.2,1.2,0,0,0,.41.31,3,3,0,0,0,.52.21L8.19,7.16q0.76,0.16,1.38.36A4.4,4.4,0,0,1,10.62,8a2,2,0,0,1,.68.72,2.14,2.14,0,0,1,.24,1.06A2.3,2.3,0,0,1,11.12,11.13Z"/>
</svg>