<svg class="blurb-ico" data-name="truck" id="truck" viewBox="0 0 32 26" xmlns="http://www.w3.org/2000/svg">
	<defs>
		<style>.truck{fill:#f3b61b;}</style>
	</defs>
	<title>truck</title>
	<path class="truck" d="M24.83,8.45A1,1,0,0,0,24,8H23a1,1,0,0,0-1,1v6a1,1,0,0,0,1,1h4a1,1,0,0,0,1-1V13.5a1,1,0,0,0-.17-0.55ZM27,15H23V9h1l3,4.5V15Z"/>
	<path class="truck" d="M31.5,12.34l-4-6A3,3,0,0,0,25,5H21V3a3,3,0,0,0-3-3H3A3,3,0,0,0,0,3V14a3,3,0,0,0,3,3H3v3a3,3,0,0,0,3,3H7.14a4,4,0,0,0,7.72,0h5.28a4,4,0,0,0,7.72,0H29a3,3,0,0,0,3-3V14A3,3,0,0,0,31.5,12.34ZM3,15a1,1,0,0,1-1-1V3A1,1,0,0,1,3,2H18a1,1,0,0,1,1,1V14a1,1,0,0,1-1,1H3Zm8,9a2,2,0,1,1,2-2A2,2,0,0,1,11,24Zm13,0a2,2,0,1,1,2-2A2,2,0,0,1,24,24Zm6-4a1,1,0,0,1-1,1H27.86a4,4,0,0,0-7.72,0H14.86a4,4,0,0,0-7.72,0H6a1,1,0,0,1-1-1V17H18a3,3,0,0,0,3-3V7h4a1,1,0,0,1,.83.45l4,6A1,1,0,0,1,30,14v6Z"/>
</svg>
