<svg data-name="Слой 1" id="search" viewBox="0 0 13.97 13.97" xmlns="http://www.w3.org/2000/svg"><defs><style>.cls-1{fill:#5d6163;fill-rule:evenodd}</style></defs><title>search</title><path class="cls-1" d="M9.29 9.58l.3-.3a.42.42 0 0 1 .59 0l1.48 1.48a.42.42 0 0 1 0 .59l-.3.3a.42.42 0 0 1-.59 0l-1.48-1.47a.42.42 0 0 1 0-.6z"/><path class="cls-1" d="M10.17 11.17l1-1a.47.47 0 0 1 .67 0l2 2a.47.47 0 0 1 0 .67l-1 1a.47.47 0 0 1-.67 0l-2-2a.47.47 0 0 1 0-.67zM5.68 0a5.68 5.68 0 1 0 5.68 5.68A5.68 5.68 0 0 0 5.68 0zm0 9.17a3.49 3.49 0 1 1 3.49-3.49 3.49 3.49 0 0 1-3.49 3.49z"/></svg>